# Made in Blockbench 4.3.1
mtllib glass.mtl

o Glass
v -0.1875 0.5625 1.109375
v 0.05468749999999997 0.5625 1.0444810549580876
v 0.23198105495808746 0.5625 0.8671875
v 0.296875 0.5625 0.625
v 0.23198105495808752 0.5625 0.3828125000000001
v 0.05468749999999997 0.5625 0.20551894504191248
v -0.18749999999999994 0.5625 0.140625
v -0.42968750000000006 0.5625 0.20551894504191254
v -0.6069810549580874 0.5625 0.3828124999999998
v -0.671875 0.5625 0.6249999999999999
v -0.6069810549580874 0.5625 0.8671875
v -0.4296875000000002 0.5625 1.0444810549580874
v -0.6069810549580874 0.625 0.3828124999999998
v -0.671875 0.625 0.6249999999999999
v -0.1875 0.625 0.625
v -0.6069810549580874 0.625 0.8671875
v -0.4296875000000002 0.625 1.0444810549580874
v -0.1875 0.625 1.109375
v 0.05468749999999997 0.625 1.0444810549580876
v 0.23198105495808746 0.625 0.8671875
v 0.296875 0.625 0.625
v 0.23198105495808752 0.625 0.3828125000000001
v 0.05468749999999997 0.625 0.20551894504191248
v -0.42968750000000006 0.625 0.20551894504191254
v -0.18749999999999994 0.625 0.140625
vt 2.220446049250313e-16 0.5000001748437806
vt 0.24999973773429882 0.5669873485808621
vt 0 1
vt 0.4330125 0.75
vt 0.5 1
vt 0 1
vt 0.5 0.75
vt 0.4330125 1
vt 0 0.75
vt 0.49999982515621944 0.7500002622657014
vt 0.4330126514191379 1
vt 0 0.7500002622657012
vt 0.25 0.9330125
vt 0 1
vt 0 0.5
vt 0.25 1
vt 0 0.9330125
vt 0.25 0.5
vt 0.2499997377342986 1
vt 0 0.9330128262629186
vt 0.2499997377342985 0.5000001748437806
vt 0.06698749999999998 1
vt 0 0.75
vt 0.5 0.75
vt 0 1
vt 0.06698749999999998 0.75
vt 0.5 1
vt 0 0.9999999999999998
vt 0.06698717373708152 0.7500002622657012
vt 0.49999982515621944 1
vt 0 0.5669875
vt 0.25 0.5
vt 0.25 1
vt 0 0.5
vt 0.25 0.5669875
vt 0 1
vt 0.250725 0.8125
vt 0 0.8125
vt 0 0.75
vt 0.250725 0.75
vt 0.375725 0.9375
vt 0.125 0.9375
vt 0.125 0.875
vt 0.375725 0.875
vt 0.375725 0.9375
vt 0.125 0.9375
vt 0.125 0.875
vt 0.375725 0.875
vt 0.375725 1
vt 0.125 1
vt 0.125 0.9375
vt 0.375725 0.9375
vt 0.250725 1
vt 0 1
vt 0 0.9375
vt 0.250725 0.9375
vt 0.250725 1
vt 0 1
vt 0 0.9375
vt 0.250725 0.9375
vt 0.250725 1
vt 0 1
vt 0 0.9375
vt 0.250725 0.9375
vt 0.250725 0.9375
vt 0 0.9375
vt 0 0.875
vt 0.250725 0.875
vt 0.250725 0.9375
vt 0 0.9375
vt 0 0.875
vt 0.250725 0.875
vt 0.250725 1
vt 0 1
vt 0 0.9375
vt 0.250725 0.9375
vt 0.250725 0.8125
vt 0 0.8125
vt 0 0.75
vt 0.250725 0.75
vt 0.250725 0.8125
vt 0 0.8125
vt 0 0.75
vt 0.250725 0.75
vn 0 1 0
vn 0 1 0
vn 0 1 0
vn 0 1 0
vn 0 1 0
vn 0 1 0
vn 0 1 0
vn 0 1 0
vn 0 1 0
vn 0 1 0
vn 0 1 0
vn 0 1 0
vn 0.7071067811865475 0 0.7071067811865476
vn 0.9659258262890684 0 0.2588190451025208
vn 0.9659258262890683 0 -0.2588190451025207
vn 0.7071067811865477 0 -0.7071067811865474
vn 0.2588190451025207 0 -0.9659258262890683
vn -0.2588190451025207 0 -0.9659258262890683
vn -0.7071067811865474 0 -0.7071067811865478
vn -0.9659258262890684 0 -0.2588190451025209
vn -0.9659258262890684 0 0.2588190451025207
vn -0.7071067811865477 0 0.7071067811865475
vn -0.258819045102521 0 0.9659258262890683
vn 0.25881904510252063 0 0.9659258262890684
usemtl none
f 19/1/1 20/2/1 15/3/1
f 20/4/2 21/5/2 15/6/2
f 21/7/3 22/8/3 15/9/3
f 22/10/4 23/11/4 15/12/4
f 23/13/5 25/14/5 15/15/5
f 25/16/6 24/17/6 15/18/6
f 24/19/7 13/20/7 15/21/7
f 13/22/8 14/23/8 15/24/8
f 14/25/9 16/26/9 15/27/9
f 16/28/10 17/29/10 15/30/10
f 17/31/11 18/32/11 15/33/11
f 18/34/12 19/35/12 15/36/12
f 20/37/13 19/38/13 2/39/13 3/40/13
f 21/41/14 20/42/14 3/43/14 4/44/14
f 22/45/15 21/46/15 4/47/15 5/48/15
f 23/49/16 22/50/16 5/51/16 6/52/16
f 25/53/17 23/54/17 6/55/17 7/56/17
f 24/57/18 25/58/18 7/59/18 8/60/18
f 13/61/19 24/62/19 8/63/19 9/64/19
f 14/65/20 13/66/20 9/67/20 10/68/20
f 16/69/21 14/70/21 10/71/21 11/72/21
f 17/73/22 16/74/22 11/75/22 12/76/22
f 18/77/23 17/78/23 12/79/23 1/80/23
f 19/81/24 18/82/24 1/83/24 2/84/24