# Made in Blockbench 4.3.1
mtllib Cristall.mtl

o Cristall
v 0 0.1875 0.015625
v 0.078125 0 0.09375
v 0.078125 0 -0.0625
v -0.078125 0 0.09375
v -0.078125 0 -0.0625
vt 1 0
vt 1 1
vt 0 1
vt 0 0
vt 0 0.29288749999999997
vt 1 0.29288749999999997
vt 0.5 1
vt 0 0.29288749999999997
vt 1 0.29288749999999997
vt 0.5 1
vt 0 0.29288749999999997
vt 1 0.29288749999999997
vt 0.5 1
vt 0 0.29288749999999997
vt 1 0.29288749999999997
vt 0.5 1
vn 0 -1 0
vn 0.9230769230769231 0.38461538461538464 0
vn 0 0.38461538461538464 0.9230769230769231
vn 0 0.38461538461538464 -0.9230769230769231
vn -0.9230769230769231 0.38461538461538464 0
usemtl none
f 3/1/1 2/2/1 4/3/1 5/4/1
f 2/5/2 3/6/2 1/7/2
f 4/8/3 2/9/3 1/10/3
f 3/11/4 5/12/4 1/13/4
f 5/14/5 4/15/5 1/16/5