# Made in Blockbench 4.3.1
mtllib Mesh.mtl

o cube
v 0.004687499999999796 0.0006820439671243461 0.012879126073623815
v 0.004687499999999796 0.013940296114372003 -0.0003791260736238141
v 0.004687499999999796 -0.012576208180123477 -0.0003791260736239945
v 0.004687499999999796 0.0006820439671241796 -0.013637378220871623
v -0.0015624999999998487 0.0006820439671243461 0.012879126073623815
v -0.0015624999999998487 0.013940296114372003 -0.0003791260736238141
v -0.0015624999999998487 -0.012576208180123477 -0.0003791260736239945
v -0.0015624999999998487 0.0006820439671241796 -0.013637378220871623
vt 1 1
vt 0 1
vt 0 0.5
vt 1 0.5
vt 1 0.5
vt 1 1
vt 0 1
vt 0 0.5
vt 0 0
vt 1 0
vt 1 1
vt 0 1
vt 1 0
vt 1 1
vt 0 1
vt 0 0
vt 1 0.5
vt 1 1
vt 0 1
vt 0 0.5
vt 1 1
vt 0 1
vt 0 0.5
vt 1 0.5
vn 1 0 0
vn -1 0 0
vn 0 0.7071067811865475 0.7071067811865476
vn 0 -0.7071067811865475 -0.7071067811865476
vn 0 -0.7071067811865476 0.7071067811865475
vn 0 0.7071067811865476 -0.7071067811865475
usemtl none
f 2/1/1 1/2/1 3/3/1 4/4/1
f 7/5/2 5/6/2 6/7/2 8/8/2
f 5/9/3 1/10/3 2/11/3 6/12/3
f 4/13/4 3/14/4 7/15/4 8/16/4
f 3/17/5 1/18/5 5/19/5 7/20/5
f 6/21/6 2/22/6 4/23/6 8/24/6