# Made in Blockbench 4.3.1
mtllib stand (1).mtl

o cylinder
v 4.2375 -0.0625 1
v 4.2375 3.6373072556310415 1
v 5.25 -0.0625 0.5000000000000007
v 5.25 3.6373072556310415 0.5000000000000007
v 5.25 -0.0625 -0.49999999999999867
v 5.25 3.6373072556310415 -0.49999999999999867
v 4.2375 -0.0625 -0.9999999999999987
v 4.2375 3.6373072556310415 -0.9999999999999987
v 3.73125 -0.0625 -0.49999999999999933
v 3.73125 3.6373072556310415 -0.49999999999999933
v 3.73125 -0.0625 0.5000000000000007
v 3.73125 3.6373072556310415 0.5000000000000007
v -0.4031250000000002 -0.0625 1
v -0.4031250000000002 3.6373072556310415 1
v 0.10312499999999991 -0.0625 0.5000000000000007
v 0.10312499999999991 3.6373072556310415 0.5000000000000007
v 0.10312499999999991 -0.0625 -0.49999999999999867
v 0.10312499999999991 3.6373072556310415 -0.49999999999999867
v -0.4031250000000002 -0.0625 -0.9999999999999987
v -0.4031250000000002 3.6373072556310415 -0.9999999999999987
v -1.5 -0.0625 -0.49999999999999933
v -1.5 3.6373072556310415 -0.49999999999999933
v -1.5 -0.0625 0.5000000000000007
v -1.5 3.6373072556310415 0.5000000000000007
v 4.2375 3.6373072556310415 0.9999999999999987
v 5.25 3.6373072556310415 0.49999999999999906
v 5.25 3.6373072556310415 -0.5000000000000002
v 4.2375 3.6373072556310415 -1
v 3.73125 3.6373072556310415 -0.5000000000000009
v 3.73125 3.6373072556310415 0.49999999999999906
v 4.235716002018024 7.391287089099034 0.9999999999999978
v 5.25 7.391287089099034 0.49999999999999817
v 5.25 7.391287089099034 -0.5000000000000011
v 4.235716002018024 7.391287089099034 -1.000000000000001
v 3.7337398564815523 5.3817291616441105 -0.5000000000000018
v 3.7337398564815523 5.3817291616441105 0.49999999999999833
v 1.9171875000000007 7.391287089099034 0.9999999999999973
v 1.9171875000000007 7.391287089099034 -1.0000000000000013
v 1.9171875000000007 6.09020503608049 -0.500000000000002
v 1.9171875000000007 6.09020503608049 0.499999999999998
v -0.4013410020180217 7.391287089099034 0.9999999999999978
v -1.4939421475544954 7.391287089099034 0.49999999999999817
v -1.4939421475544954 7.391287089099034 -0.5000000000000011
v -0.4013410020180217 7.391287089099034 -1.000000000000001
v 0.10063514351844871 5.381729161644113 -0.5000000000000018
v 0.10063514351844871 5.381729161644113 0.49999999999999833
v -0.4031250000000002 3.6373072556310415 0.9999999999999987
v -1.5 3.6373072556310415 0.49999999999999906
v -1.5 3.6373072556310415 -0.5000000000000002
v -0.4031250000000002 3.6373072556310415 -1
v 0.10312499999999991 3.6373072556310415 -0.5000000000000009
v 0.10312499999999991 3.6373072556310415 0.49999999999999906
v 1.9171875000000007 7.875 -0.9999998078420672
v -0.4013410020180217 7.875 -0.9999996156841329
v 1.9171874993968667 7.875 -0.4999999039210347
v -1.5 7.875 -0.9999998078420669
v 1.9171874987937327 7.875 0.49999987468105417
v -1.5 7.875 0.999999807842064
v 1.9171874987937327 7.875 0.9999997493621103
v -0.40134089935178885 7.875 1
v 5.249999894921231 7.875 0.9999999415200453
v 4.235715896939254 7.875 0.9999998830400921
v 5.249999947460616 7.875 -1.000000000000001
v 4.235716002018024 7.875 -1.000000000000001
v 5.25 5.852155357377157 -0.5000000000000008
v 5.25 5.852155357377157 0.49999999999999856
v 4.236447441190634 5.852155357377157 0.9999999999999981
v 3.732719015324116 4.6665161801787525 0.4999999999999986
v 3.732719015324116 4.6665161801787525 -0.5000000000000014
v 4.236447441190634 5.852155357377157 -1.0000000000000007
vt 0.4908256880733945 0.5137614678899083
vt 0.573394495412844 0.5137614678899083
vt 0.573394495412844 0.7844036697247706
vt 0.4908256880733945 0.7844036697247706
vt 0.3486238532110092 0.2339449541284404
vt 0.42201834862385323 0.2339449541284404
vt 0.42201834862385323 0.5045871559633027
vt 0.3486238532110092 0.5045871559633027
vt 0.4908256880733945 0.24311926605504586
vt 0.573394495412844 0.24311926605504586
vt 0.573394495412844 0.5137614678899083
vt 0.4908256880733945 0.5137614678899083
vt 0.6467889908256881 0.5137614678899083
vt 0.6972477064220184 0.5137614678899083
vt 0.6972477064220184 0.7844036697247706
vt 0.6467889908256881 0.7844036697247706
vt 0.1651376146788991 0.16055045871559637
vt 0.23853211009174313 0.16055045871559637
vt 0.23853211009174313 0.4311926605504587
vt 0.1651376146788991 0.4311926605504587
vt 0.6467889908256881 0.24311926605504586
vt 0.6972477064220184 0.24311926605504586
vt 0.6972477064220184 0.5137614678899083
vt 0.6467889908256881 0.5137614678899083
vt 0.6972477064220184 0.6605504587155964
vt 0.7477064220183486 0.6605504587155964
vt 0.7477064220183486 0.9311926605504587
vt 0.6972477064220184 0.9311926605504587
vt 0.573394495412844 0.5137614678899083
vt 0.6467889908256881 0.5137614678899083
vt 0.6467889908256881 0.7844036697247706
vt 0.573394495412844 0.7844036697247706
vt 0.07339449541284404 0.04587155963302747
vt 0.12385321100917432 0.04587155963302747
vt 0.12385321100917432 0.3165137614678899
vt 0.07339449541284404 0.3165137614678899
vt 0.0779816513761468 0.3165137614678899
vt 0.1651376146788991 0.3165137614678899
vt 0.1651376146788991 0.5871559633027523
vt 0.0779816513761468 0.5871559633027523
vt 0.573394495412844 0.24311926605504586
vt 0.6467889908256881 0.24311926605504586
vt 0.6467889908256881 0.5137614678899083
vt 0.573394495412844 0.5137614678899083
vt 0.26146788990825687 0.24770642201834858
vt 0.3486238532110092 0.24770642201834858
vt 0.3486238532110092 0.518348623853211
vt 0.26146788990825687 0.518348623853211
vt 0.4812234020397059 0.24311926605504586
vt 0.4812234020397059 0.1301554943189056
vt 0.564172018353002 0.13012012694561914
vt 0.5642201834862385 0.24308387814525956
vt 0.41743119266055045 0.7844036697247706
vt 0.41743119266055045 0.6697247706422018
vt 0.4908256880733945 0.6697247706422018
vt 0.4908256880733945 0.7844036697247706
vt 0.7477064220183486 0.8577981651376146
vt 0.7477064220183486 0.7431192660550459
vt 0.8306550458715597 0.7431192660550459
vt 0.8307032110091743 0.8577981651376146
vt 0.16055045871559634 0.3160040929038348
vt 0.12385321100917432 0.20948056282353011
vt 0.14404640005290253 0.11009174311926606
vt 0.16055045871559634 0.1596152951710419
vt 0.26146788990825687 0.5688073394495412
vt 0.26146788990825687 0.518348623853211
vt 0.3348623853211009 0.518348623853211
vt 0.3348623853211009 0.5688073394495412
vt 0.7972298215437174 0.6972477064220184
vt 0.7477064220183486 0.6798432502707659
vt 0.8470950891962057 0.6596504938419859
vt 0.9536186192765101 0.6972477064220184
vt 0.9178738532110091 0.6972477064220184
vt 0.9923165137614678 0.6972477064220184
vt 0.7477064220183486 0.7339449541284404
vt 0.7477064220183486 0.6972477064220184
vt 0.236458461752421 0.7080465391758635
vt 0.25823653507614497 0.8532110091743119
vt 0.010889036661862021 0.8532110091743119
vt 0 0.7806287741750876
vt 0.6849770642201835 1
vt 0.6105344036697248 1
vt 0.44036697247706424 1
vt 0.44036697247706424 0.963302752293578
vt 0.24770642201834864 0.7762560346777226
vt 0.2827898280982579 0.6238532110091743
vt 0.41743119266055045 0.6728937904200262
vt 0.41743119266055045 0.7741444882638557
vt 0.7477064220183486 0.8577981651376146
vt 0.8211009174311926 0.8577981651376146
vt 0.8211009174311926 1
vt 0.7477064220183486 1
vt 0.3993798165137615 0.8440366972477065
vt 0.43622247706422024 0.9960243119266055
vt 0.26605504587155965 0.9960243119266055
vt 0.26605504587155965 0.8944967889908256
vt 0.6788990825688074 0.9495412844036697
vt 0.6788990825688074 0.9862385321100917
vt 0.42660550458715596 0.9495412844036697
vt 0.5072408256880734 0.9495412844036697
vt 0.2534732896130485 0.8532110091743119
vt 0.26409916653508897 0.9273787724109291
vt 0.0212517538440811 1
vt 0 0.8532110091743119
vt 1 0.7064220183486238
vt 1 0.7431192660550459
vt 0.828341743119266 0.7431192660550459
vt 0.7477064220183486 0.7431192660550459
vt 0.4908256880733945 0.6593516882003919
vt 0.3879871716729555 0.6593516882003919
vt 0.3394495412844037 0.5247281537355926
vt 0.4908256880733945 0.49082568807339455
vt 0.07339449541284404 0.2981651376146789
vt 0 0.2981651376146789
vt 0 0.15596330275229353
vt 0.07339449541284404 0.15596330275229353
vt 0.16972477064220184 0.6219321100917431
vt 0.16972477064220184 0.7242325688073394
vt 0 0.7242325688073394
vt 0.03684266055045872 0.573394495412844
vt 0.6839080901151942 0.7879578930312994
vt 0.6837787367497831 0.8761467889908257
vt 0.40825688073394495 0.8761467889908257
vt 0.40838665192824675 0.7876730309524087
vt 0.07339449541284404 0.573394495412844
vt 0 0.573394495412844
vt 0 0.2981651376146789
vt 0.07339449541284404 0.2981651376146789
vt 0.2610637614678899 0.7064220183486238
vt 0.17287477064220183 0.7064220183486238
vt 0.17299403669724772 0.4311926605504587
vt 0.26146788990825687 0.4311926605504587
vt 0.47415012658760186 0.49082568807339455
vt 0.4221488310416039 0.34333577787200587
vt 0.42201834862385323 0.2155963302752294
vt 0.47424036697449173 0.2155963302752294
vt 0.3119266055045872 0.24770642201834858
vt 0.23853211009174313 0.24770642201834858
vt 0.23853211009174313 0.11926605504587151
vt 0.3119266055045872 0.11926605504587151
vt 0.554361533291575 0.8809063607097627
vt 0.7018348623853211 0.9329564190650592
vt 0.42631328717097683 0.9329564190650592
vt 0.4263308500912938 0.8807339449541285
vt 0.3853211009174312 0.2339449541284404
vt 0.3119266055045872 0.2339449541284404
vt 0.3119266055045872 0.1972477064220184
vt 0.3853211009174312 0.1972477064220184
vt 0.9495412844036697 0.463302752293578
vt 0.7798165137614679 0.463302752293578
vt 0.7798165137614679 0.42660550458715596
vt 0.9495412844036697 0.42660550458715596
vt 0.26146788990825687 1
vt 0.11467889908256881 1
vt 0.15137614678899083 0.963302752293578
vt 0.22477064220183487 0.963302752293578
vt 0.40825688073394495 0.8400504587155964
vt 0.3348623853211009 0.8400504587155964
vt 0.3348623853211009 0.7889908256880733
vt 0.40825688073394495 0.8153655963302753
vt 0.9403669724770642 0.2844036697247706
vt 0.7706422018348624 0.2844036697247706
vt 0.7706422018348624 0.24770642201834858
vt 0.9403669724770642 0.24770642201834858
vt 0.3440366972477064 0.6198669724770642
vt 0.26146788990825687 0.6198669724770642
vt 0.26191238532110095 0.5688073394495412
vt 0.3440366972477064 0.5951821100917432
vt 0.9403669724770642 0.24770642201834858
vt 0.7706422018348624 0.24770642201834858
vt 0.7706422018348624 0.21100917431192656
vt 0.9403669724770642 0.21100917431192656
vt 0.926605504587156 0.42660550458715596
vt 0.7798165137614679 0.42660550458715596
vt 0.8165137614678899 0.38990825688073394
vt 0.8899082568807339 0.38990825688073394
vt 0.9495412844036697 0.5
vt 0.7798165137614679 0.5
vt 0.7798165137614679 0.463302752293578
vt 0.9495412844036697 0.463302752293578
vt 0.6953142201834862 0.24311926605504586
vt 0.6146788990825688 0.24311926605504586
vt 0.6146788990825688 0.20642201834862384
vt 0.6948697247706422 0.20642201834862384
vt 0.7706422018348624 0.17889908256880738
vt 0.7706422018348624 0.33944954128440363
vt 0.6972477064220184 0.33944954128440363
vt 0.6972477064220184 0.17889908256880738
vt 0.7798165137614679 0.33944954128440363
vt 0.7798165137614679 0.5
vt 0.6972477064220184 0.5
vt 0.6973169724770641 0.33944954128440363
vt 0.6146788990825688 0.07798165137614677
vt 0.6146788990825688 0.24053945870650906
vt 0.5643221549390944 0.15353769004333828
vt 0.5642201834862385 0.07799918791645255
vt 0.3348623853211009 0.7935779816513762
vt 0.3348623853211009 0.8669724770642202
vt 0.26146788990825687 0.8669724770642202
vt 0.26146788990825687 0.7935779816513762
vt 0.7732396929847901 0.2872266083433638
vt 0.848778194823528 0.28732879302756875
vt 0.9357798165137615 0.33944954128440363
vt 0.7732224677442846 0.33944954128440363
vt 0.7801270642201835 0.5
vt 0.7801963302752295 0.6605504587155964
vt 0.6972477064220184 0.6605504587155964
vt 0.6972477064220184 0.5
vn 0.4427803124546236 0 0.8966301327206142
vn 1 0 0
vn 0.4427803124546241 0 -0.896630132720614
vn -0.7027012590611679 0 -0.7114850247994329
vn -1 0 0
vn -0.7027012590611679 0 0.7114850247994329
vn 0.7027012590611674 0 0.7114850247994332
vn 1 0 0
vn 0.702701259061168 0 -0.7114850247994327
vn -0.41477928414691684 0 -0.9099220545972998
vn -1 0 0
vn -0.41477928414691684 0 0.9099220545972998
vn 0.44241051905601203 0.00021024606103774523 0.896812627266802
vn 1 0 0
vn 0.44241052883403853 -1.9406955799516836e-16 -0.896812647087889
vn -0.7040784677134836 -0.00033459811221049136 -0.7101221017165544
vn -0.9999989813736505 0.0014273232506056145 0
vn -0.7056681279795006 0.0010072175522550934 0.7085417974027429
vn 0 1 0
vn 0 1 0
vn 0 1 0
vn -0.08591701557539515 -0.2202936793430101 -0.9716424040129868
vn -0.3633543823835535 -0.931651003757666 0
vn -1.8498820137078166e-16 -0.24144947000627162 0.9704133930617873
vn 0 1 0
vn 0 1 0
vn 0 1 0
vn 0.13855501993045008 -0.35525902439125395 -0.9244422816166769
vn 0.3633543823835522 -0.9316510037576664 0
vn 1.7177190257496827e-16 -0.358718962886209 0.933445609377345
vn -0.416121166551398 0.0006715008439700887 0.9093089265120631
vn -0.9999986979649744 0.0016137126001479344 0
vn -0.4161212522322892 0.00019775265376264446 -0.9093091137421421
vn 0.7077375438167712 0.001010171280602737 -0.7064747331831392
vn 0.9999989813736504 0.0014273232506053636 0
vn 0.7050371557890637 -0.0003350537080496107 0.7091702875162498
vn -5.7656389462553256e-8 2.4179610871477513e-7 0.9999999999999691
vn -5.7656391831125635e-8 5.181542218172205e-7 0.9999999999998642
vn 0.9999999999999818 1.900795322551029e-7 2.6269692967445805e-8
vn 0 -0.7187156690763122 -0.6953040967980766
vn -8.287926317528497e-8 0 -0.9999999999999967
vn -1.216102669490915e-7 -0.7187155362775927 0.6953042340682227
vn 1.0810214352579098e-7 -2.753469171795486e-14 0.9999999999999943
vn -0.9999215882865635 -0.012522670580845385 0
vn -8.28792633668177e-8 3.9725616122643107e-7 -0.9999999999999178
vn 1.7490225298483594e-7 7.945123224526648e-7 -0.9999999999996693
vn 1 0 0
vn 0.4424105288340383 2.0229284435089592e-16 0.8968126470878891
vn -0.7040784677134843 -0.00033459811220992985 0.7101221017165537
vn -0.9999989813736505 0.0014273232506060557 0
vn -0.7056681279795002 0.0010072175522547466 -0.7085417974027435
vn 0.44241051905601225 0.00021024606103716903 -0.8968126272668019
usemtl m_0
f 1/1/1 3/2/1 4/3/1 2/4/1
f 3/5/2 5/6/2 6/7/2 4/8/2
f 5/9/3 7/10/3 8/11/3 6/12/3
f 7/13/4 9/14/4 10/15/4 8/16/4
f 9/17/5 11/18/5 12/19/5 10/20/5
f 11/21/6 1/22/6 2/23/6 12/24/6
f 13/25/7 15/26/7 16/27/7 14/28/7
f 15/29/8 17/30/8 18/31/8 16/32/8
f 17/33/9 19/34/9 20/35/9 18/36/9
f 19/37/10 21/38/10 22/39/10 20/40/10
f 21/41/11 23/42/11 24/43/11 22/44/11
f 23/45/12 13/46/12 14/47/12 24/48/12
f 31/49/13 67/50/13 66/51/13 32/52/13
f 32/53/14 66/54/14 65/55/14 33/56/14
f 33/57/15 65/58/15 70/59/15 34/60/15
f 34/61/16 70/62/16 69/63/16 35/64/16
f 35/65/17 69/66/17 68/67/17 36/68/17
f 36/69/18 68/70/18 67/71/18 31/72/18
f 62/73/19 61/74/19 57/75/19 59/76/19
f 61/77/20 63/78/20 55/79/20 57/80/20
f 63/81/21 64/82/21 53/83/21 55/84/21
f 34/85/22 35/86/22 39/87/22 38/88/22
f 35/89/23 36/90/23 40/91/23 39/92/23
f 36/93/24 31/94/24 37/95/24 40/96/24
f 59/97/25 57/98/25 58/99/25 60/100/25
f 57/101/26 55/102/26 56/103/26 58/104/26
f 55/105/27 53/106/27 54/107/27 56/108/27
f 38/109/28 39/110/28 45/111/28 44/112/28
f 39/113/29 40/114/29 46/115/29 45/116/29
f 40/117/30 37/118/30 41/119/30 46/120/30
f 41/121/31 42/122/31 48/123/31 47/124/31
f 42/125/32 43/126/32 49/127/32 48/128/32
f 43/129/33 44/130/33 50/131/33 49/132/33
f 44/133/34 45/134/34 51/135/34 50/136/34
f 45/137/35 46/138/35 52/139/35 51/140/35
f 46/141/36 41/142/36 47/143/36 52/144/36
f 61/145/37 62/146/37 31/147/37 32/148/37
f 62/149/38 59/150/38 37/151/38 31/152/38
f 63/153/39 61/154/39 32/155/39 33/156/39
f 64/157/40 63/158/40 33/159/40 34/160/40
f 53/161/41 64/162/41 34/163/41 38/164/41
f 60/165/42 58/166/42 42/167/42 41/168/42
f 59/169/43 60/170/43 41/171/43 37/172/43
f 58/173/44 56/174/44 43/175/44 42/176/44
f 54/177/45 53/178/45 38/179/45 44/180/45
f 56/181/46 54/182/46 44/183/46 43/184/46
f 27/185/47 65/186/47 66/187/47 26/188/47
f 26/189/48 66/190/48 67/191/48 25/192/48
f 25/193/49 67/194/49 68/195/49 30/196/49
f 30/197/50 68/198/50 69/199/50 29/200/50
f 29/201/51 69/202/51 70/203/51 28/204/51
f 28/205/52 70/206/52 65/207/52 27/208/52